<svg xmlns="http://www.w3.org/2000/svg" viewBox="0 0 240 140" role="img" aria-labelledby="title"><title id="title">Illustration of Machu Picchu</title><rect width="240" height="140" rx="10" fill="#eaf4ed"/><g stroke="#53677c" stroke-width="2.5" stroke-linejoin="round" stroke-linecap="round"><path d="M21 105L70 34l22 36 36-51 52 78 38 13Z" fill="#789c85" stroke="none"/><path d="M30 119l58-28 42 12 66-20v36Z" fill="#b5c6a3"/><path d="M40 113l42-19 18 6-43 20m23-13l25-8 16 10-22 10m30-10l20-16 19 4-18 18" fill="#dedfcd"/><path d="M55 119l24-9m38 11l69-28m-49 29l59-16"/></g></svg>
